<?xml version="1.0" encoding="utf-8"?>
<!-- Svg Vector Icons : http://www.onlinewebfonts.com/icon -->
<!DOCTYPE svg PUBLIC "-//W3C//DTD SVG 1.1//EN" "http://www.w3.org/Graphics/SVG/1.1/DTD/svg11.dtd">
<svg version="1.1" xmlns="http://www.w3.org/2000/svg" xmlns:xlink="http://www.w3.org/1999/xlink" x="0px" y="0px" viewBox="0 0 1000 1000" enable-background="new 0 0 1000 1000" xml:space="preserve">
<metadata> Svg Vector Icons : http://www.onlinewebfonts.com/icon </metadata>
<g><g transform="translate(0.000000,512.000000) scale(0.100000,-0.100000)"><path d="M4669.7,5017.8c-415.9-49.8-718.8-134.2-1000.5-281.7c-419.7-216.6-716.8-532.8-971.7-1029.3c-118.8-230-178.3-377.6-358.4-906.6c-249.2-722.6-354.6-891.3-621-989c-454.3-166.8-893.2-488.8-1163.4-852.9C274.7,580.7,108,86.2,100.3-385.3C96.5-692,125.2-718.8,481.7-749.5c306.7-26.8,596.1-134.2,768.6-287.5c191.7-166.8,272.2-398.7,322-925.8c46-492.6,93.9-651.7,233.8-806.9c93.9-107.3,153.3-134.2,590.3-283.7c201.3-67.1,427.4-155.3,500.2-193.6c205.1-105.4,356.5-270.3,506-550.1c207-383.3,354.6-573.1,561.6-714.9c519.4-354.6,1489.3-364.2,2012.5-17.3c193.6,126.5,341.2,293.3,561.6,630.6c113.1,172.5,237.7,345,276,385.3c76.7,82.4,185.9,143.8,346.9,195.5c157.2,49.8,377.6,166.8,513.7,268.3c151.4,115,274.1,264.5,368,450.4c86.3,172.5,113.1,254.9,199.3,598c105.4,421.7,195.5,571.2,402.5,672.8c180.2,88.2,316.3,111.2,743.7,124.6l398.7,13.4l51.8,53.7c49.8,49.8,53.7,65.2,59.4,245.4c9.6,256.8-26.8,831.8-63.2,1033.1c-90.1,477.3-241.5,797.3-519.4,1092.5c-253,266.4-584.6,446.6-1100.2,594.2c-243.4,70.9-312.4,182.1-575,929.6c-302.8,864.4-486.9,1215.2-829.9,1573.6C6492.5,4669,6067,4889.4,5561,4981.4C5396.1,5012.1,4817.3,5035.1,4669.7,5017.8z M5256.2,4619.2c519.4-30.7,956.4-224.3,1280.4-569.3c164.8-174.4,251.1-300.9,387.2-563.5c120.8-230,174.4-366.1,345-854.9c254.9-739.8,398.7-985.2,649.8-1115.5c32.6-15.3,153.3-55.6,268.3-90.1c394.8-113.1,670.8-270.3,874-494.5c285.6-316.3,408.3-709.2,433.2-1397.3l11.5-331.6h-105.4c-178.2,0-494.5-38.3-655.5-78.6c-343.1-86.3-594.2-279.8-726.4-555.8c-40.3-84.3-107.3-285.6-155.3-469.6c-99.6-387.2-157.1-534.8-258.7-668.9c-120.8-161-369.9-318.2-634.4-402.5c-299-95.8-429.3-212.7-705.3-632.5c-247.3-377.6-335.4-483-484.9-582.7c-193.6-130.3-379.5-178.2-716.9-189.7c-483-13.4-766.7,69-994.8,293.3c-120.8,120.7-162.9,180.2-322,477.3c-285.6,529-479.2,674.7-1242,933.4c-195.5,65.2-369.9,132.3-391,149.5c-80.5,69-115,201.3-145.7,567.3c-57.5,647.8-176.3,967.9-456.2,1217.1c-197.4,176.3-582.7,333.5-920,375.7c-116.9,15.3-115,9.6-72.8,247.2c134.2,743.7,584.6,1265,1362.8,1571.7c402.5,161,540.5,368,862.5,1312.9c157.2,458.1,253,686.2,389.1,920c316.3,538.6,768.6,829.9,1431.8,918.1c155.3,21.1,383.3,34.5,469.6,26.8C5060.7,4630.7,5160.4,4624.9,5256.2,4619.2z"/><path d="M3680.7,2827.1c-166.8-101.6-247.3-285.6-247.3-557.8c1.9-159.1,7.7-197.4,55.6-302.8c164.8-358.4,492.6-358.4,651.7-3.8c172.5,383.3-17.3,900.8-325.8,900.8C3772.7,2863.5,3713.3,2846.2,3680.7,2827.1z"/><path d="M5240.9,2819.4c-306.7-185.9-327.8-808.8-36.4-1054.2c220.4-184,496.4,5.7,561.6,389.1C5842.7,2600.9,5530.3,2997.7,5240.9,2819.4z"/></g></g>
</svg>